<svg viewBox="0 0 390 700" xmlns="http://www.w3.org/2000/svg" font-family="Arial, sans-serif">
  <rect width="390" height="700" fill="#ffffff"/>
  <rect width="390" height="28" fill="#111111"/>
  <text x="16" y="19" font-size="11" fill="#ffffff">9:41</text>
  <text x="300" y="19" font-size="11" fill="#f0ad4e">Sin señal</text>

  <rect x="0" y="28" width="390" height="48" fill="#2f6fed"/>
  <text x="16" y="58" font-size="16" fill="#ffffff">←</text>
  <text x="44" y="58" font-size="15" font-weight="bold" fill="#ffffff">Nueva nota SOAP</text>

  <rect x="16" y="88" width="358" height="56" rx="8" fill="#fff8e6" stroke="#e0b84a"/>
  <text x="28" y="110" font-size="12" font-weight="bold" fill="#8a6d1a">⚠ Sin conexión ①</text>
  <text x="28" y="128" font-size="11" fill="#8a6d1a">Tu borrador se guardó en el celular</text>

  <text x="16" y="166" font-size="13" font-weight="bold" fill="#222222">Subjetivo</text>
  <rect x="16" y="172" width="358" height="60" fill="#ffffff" stroke="#999999" rx="6"/>
  <text x="26" y="196" font-size="11" fill="#333333">Dolor de cabeza desde hace</text>
  <text x="26" y="212" font-size="11" fill="#333333">dos días</text>
  <text x="340" y="228" font-size="10" fill="#999999">💾 ②</text>

  <text x="16" y="256" font-size="13" font-weight="bold" fill="#222222">Objetivo</text>
  <rect x="16" y="262" width="358" height="60" fill="#ffffff" stroke="#999999" rx="6"/>

  <rect x="16" y="346" width="358" height="70" rx="8" fill="#f7f7fb" stroke="#dddddd"/>
  <text x="28" y="368" font-size="11" font-weight="bold" fill="#444444">Qué va a pasar</text>
  <text x="28" y="388" font-size="10" fill="#666666">En cuanto vuelva la señal, se envía</text>
  <text x="28" y="402" font-size="10" fill="#666666">solo. No hace falta que hagas nada. ③</text>

  <rect x="16" y="440" width="358" height="44" rx="8" fill="#cccccc"/>
  <text x="120" y="467" font-size="14" fill="#666666">Sin señal, esperando ④</text>

  <text x="16" y="530" font-size="10" fill="#666666">① Estado de conexión visible siempre ② Borrador guardado localmente</text>
  <text x="16" y="542" font-size="10" fill="#666666">③ El envío diferido se explica ④ El botón se deshabilita, no reintenta a mano</text>
</svg>
